<?xml version="1.0" encoding="utf-8"?>
<!-- Generator: Adobe Illustrator 22.1.0, SVG Export Plug-In . SVG Version: 6.00 Build 0)  -->
<svg version="1.1" id="Layer_1" xmlns="http://www.w3.org/2000/svg" xmlns:xlink="http://www.w3.org/1999/xlink" x="0px" y="0px"
	 viewBox="0 0 116.8 91.8" style="enable-background:new 0 0 116.8 91.8;" xml:space="preserve">
<style type="text/css">
	.st0{fill:#FFFFFF;}
</style>
<g>
	<path class="st0" d="M11.2,28.3c1.5,1,5.9,4.1,13.4,9.3c7.4,5.2,13.1,9.1,17.1,11.9c0.4,0.3,1.4,1,2.8,2c1.4,1,2.6,1.8,3.5,2.5
		c0.9,0.6,2.1,1.3,3.4,2.1c1.3,0.8,2.6,1.4,3.7,1.8c1.2,0.4,2.3,0.6,3.3,0.6h0.1c1,0,2.1-0.2,3.3-0.6c1.2-0.4,2.4-1,3.7-1.8
		c1.3-0.8,2.5-1.5,3.4-2.1c0.9-0.6,2.1-1.5,3.5-2.5c1.4-1,2.3-1.7,2.8-2c4-2.8,14.2-9.8,30.5-21.2c3.2-2.2,5.8-4.9,7.9-8
		c2.1-3.1,3.2-6.4,3.2-9.8c0-2.9-1-5.3-3.1-7.4c-2.1-2-4.5-3.1-7.3-3.1H10.4C7.1,0,4.5,1.1,2.7,3.4C0.9,5.6,0,8.5,0,11.9
		c0,2.7,1.2,5.7,3.6,8.9C6,24,8.5,26.5,11.2,28.3L11.2,28.3z M11.2,28.3"/>
	<path class="st0" d="M110.3,35.3C96,44.9,85.2,52.4,77.8,57.7c-2.5,1.8-4.5,3.3-6,4.3c-1.5,1-3.6,2.1-6.2,3.1
		c-2.6,1.1-5,1.6-7.2,1.6h-0.1c-2.2,0-4.6-0.5-7.2-1.6C48.6,64.1,46.5,63,45,62c-1.5-1-3.6-2.4-6-4.3c-5.9-4.3-16.7-11.8-32.4-22.5
		c-2.5-1.7-4.7-3.5-6.6-5.7v51.8c0,2.9,1,5.3,3.1,7.4c2,2,4.5,3.1,7.4,3.1h95.9c2.9,0,5.3-1,7.4-3.1c2-2,3.1-4.5,3.1-7.4V29.6
		C114.9,31.7,112.8,33.6,110.3,35.3L110.3,35.3z M110.3,35.3"/>
</g>
</svg>
