<svg id="Layer_1" data-name="Layer 1" xmlns="http://www.w3.org/2000/svg" viewBox="0 0 462.49 462.18"><defs><style>.cls-1{fill:#fff;}</style></defs><title>phone-receiver</title><path class="cls-1" d="M462.27,364.75q1.46,11.26-6.86,19.59L390.29,449a36.61,36.61,0,0,1-11.5,8.33,47.67,47.67,0,0,1-14,4.4c-.33,0-1.31.08-2.94.25s-3.75.24-6.37.24q-9.3,0-30.11-3.18T274.5,443.33q-30.1-12.48-68.3-37.45t-81.27-68.54q-34.28-33.79-56.79-64.63t-36.23-57Q18.2,189.48,11.34,168.18T2,131.46Q-.41,116,.08,107.22c.33-5.87.49-9.14.49-9.79A47.31,47.31,0,0,1,5,83.48,36.64,36.64,0,0,1,13.3,72L78.42,6.85Q85.28,0,94.09,0a18.22,18.22,0,0,1,11.25,3.67,34.09,34.09,0,0,1,8.33,9.06l52.39,99.39a23.82,23.82,0,0,1,2.44,17.13,30.38,30.38,0,0,1-8.32,15.67l-24,24a8.24,8.24,0,0,0-1.71,3.18,12.15,12.15,0,0,0-.74,3.68q2,10.28,8.82,23.5,5.87,11.74,18.11,28.64t34.76,38.92q22,22.53,39.17,35t28.64,18.36q11.5,5.87,17.63,7.1l6.11,1.22a11.69,11.69,0,0,0,3.19-.74,7.91,7.91,0,0,0,3.18-1.71l27.91-28.4a30,30,0,0,1,20.56-7.83q8.32,0,13.22,2.94h.49L450,348.59q10.29,6.38,12.25,16.16Zm0,0"/></svg>